<svg id="ac43b10c-b967-4294-a3a9-f86eb07b5c65" data-name="Layer 1" xmlns="http://www.w3.org/2000/svg" viewBox="0 0 260.74 272.72"><path d="M179.29,117.63a17.8,17.8,0,0,0-8.83-14.82L138.75,84.34a17.8,17.8,0,0,0-18,0l-31,18.23A17.8,17.8,0,0,0,81,117.94v18.42c.11,6.69.3,13.46.46,18.73a17.77,17.77,0,0,0,8.82,14.82L122,188.38a17.77,17.77,0,0,0,18,0l31-18.23a17.78,17.78,0,0,0,8.78-15.34V136.36C179.63,129.67,179.45,122.9,179.29,117.63Z" fill="teal"/><polygon points="109.34 155.78 148.52 155.78 148.59 164.09 109.34 164.09 109.34 155.78" fill="#00ad99"/><polygon points="109.39 143.03 148.59 143.74 148.58 151.89 109.27 151.34 109.39 143.03" fill="#00ad99"/><polygon points="110.96 127.27 149.93 132.31 148.86 140.54 109.86 135.78 110.96 127.27" fill="#00ad99"/><polygon points="118.93 104.56 154.08 122.11 150.37 129.54 113.99 114.44 118.93 104.56" fill="#00ad99"/></svg>