<svg id="ba6fa6b3-5ded-42bb-b677-000ba035a007" data-name="Layer 1" xmlns="http://www.w3.org/2000/svg" viewBox="0 0 260.74 272.72"><path d="M135.21,143.6V121.13h4.33v19.1h9.86v3.37Z" fill="#004253"/><path d="M162,144a11.42,11.42,0,0,1-5.88-1.48,10.32,10.32,0,0,1-4-4.09,13.51,13.51,0,0,1,0-12.1,10.45,10.45,0,0,1,4-4.09,12.52,12.52,0,0,1,11.77,0,10.5,10.5,0,0,1,4,4.09,13.6,13.6,0,0,1,0,12.1,10.37,10.37,0,0,1-4,4.09A11.5,11.5,0,0,1,162,144Zm0-3.88a6.76,6.76,0,0,0,3.62-.95,6.24,6.24,0,0,0,2.39-2.68,10.27,10.27,0,0,0,0-8.23,6.22,6.22,0,0,0-2.39-2.65,7.53,7.53,0,0,0-7.25,0,6.28,6.28,0,0,0-2.39,2.65,10.39,10.39,0,0,0,0,8.23,6.3,6.3,0,0,0,2.39,2.68A6.82,6.82,0,0,0,162,140.1Z" fill="#004253"/><path d="M187.13,144a10.52,10.52,0,0,1-5.55-1.43,9.74,9.74,0,0,1-3.69-4,14.49,14.49,0,0,1,0-12.13,10,10,0,0,1,3.88-4.16,11.69,11.69,0,0,1,6.06-1.5,10.93,10.93,0,0,1,6.57,1.89,8.62,8.62,0,0,1,3.38,5.26H193a4.29,4.29,0,0,0-1.78-2.32,6,6,0,0,0-3.36-.85,6.91,6.91,0,0,0-3.72,1,6.08,6.08,0,0,0-2.34,2.69,9.74,9.74,0,0,0-.81,4.14,9.55,9.55,0,0,0,.81,4.14,5.75,5.75,0,0,0,2.29,2.59,6.79,6.79,0,0,0,3.52.88,5.91,5.91,0,0,0,4.47-1.59,6.91,6.91,0,0,0,1.82-4.12h-5.53v-3.24h9.89V143.6h-4l-.32-2.86a7.26,7.26,0,0,1-1.66,1.78,6.62,6.62,0,0,1-2.19,1.09A10.28,10.28,0,0,1,187.13,144Z" fill="#004253"/><path d="M210.31,144a10.85,10.85,0,0,1-4.35-.83,6.79,6.79,0,0,1-3-2.44,7.09,7.09,0,0,1-1.16-3.89h4.59a3.63,3.63,0,0,0,.51,1.8,3.38,3.38,0,0,0,1.35,1.27,4.8,4.8,0,0,0,3.8.13,2.83,2.83,0,0,0,1.19-1,2.41,2.41,0,0,0,.44-1.44,2.68,2.68,0,0,0-.5-1.66,4,4,0,0,0-1.33-1.09,15.06,15.06,0,0,0-1.91-.8c-.72-.24-1.47-.5-2.27-.75a10,10,0,0,1-4-2.33,5.24,5.24,0,0,1-1.38-3.8,6,6,0,0,1,1-3.47,6.14,6.14,0,0,1,2.69-2.21,9.54,9.54,0,0,1,3.95-.77,9.66,9.66,0,0,1,4,.78,6.36,6.36,0,0,1,2.73,2.27,6.43,6.43,0,0,1,1.06,3.46h-4.65a3.13,3.13,0,0,0-.42-1.39,2.85,2.85,0,0,0-1.09-1.06,4.17,4.17,0,0,0-3.21-.15,2.54,2.54,0,0,0-1.08.85,2.41,2.41,0,0,0-.4,1.4,2.29,2.29,0,0,0,.39,1.35,3.18,3.18,0,0,0,1.09.94,9.7,9.7,0,0,0,1.67.74c.64.23,1.33.46,2.08.69a18,18,0,0,1,3.1,1.37,6.43,6.43,0,0,1,2.23,2,5.86,5.86,0,0,1,.83,3.31,6.16,6.16,0,0,1-.91,3.27,6.63,6.63,0,0,1-2.68,2.44A9.28,9.28,0,0,1,210.31,144Z" fill="#004253"/><path d="M135.79,155.09v-5.61h.8v5.61Z" fill="#004253"/><path d="M142.56,155.09v-5.61h.8l2.86,4.3v-4.3H147v5.61h-.81l-2.86-4.3v4.3Z" fill="#004253"/><path d="M154.67,155.09l-2.09-5.61h.86l1.71,4.78,1.71-4.78h.86l-2.1,5.61Z" fill="#004253"/><path d="M163.26,155.09v-5.61h3.54v.65h-2.74v1.8h2.5v.64h-2.5v1.86h2.74v.66Z" fill="#004253"/><path d="M172.64,155.09v-5.61h.8l2.86,4.3v-4.3h.81v5.61h-.81l-2.86-4.3v4.3Z" fill="#004253"/><path d="M184.39,155.09v-5h-1.67v-.65h4.14v.65H185.2v5Z" fill="#004253"/><path d="M194.79,155.19a2.77,2.77,0,0,1-1.45-.37,2.47,2.47,0,0,1-1-1,3.45,3.45,0,0,1,0-3,2.53,2.53,0,0,1,1-1,2.77,2.77,0,0,1,1.45-.37,2.82,2.82,0,0,1,1.47.37,2.51,2.51,0,0,1,1,1,3.45,3.45,0,0,1,0,3,2.45,2.45,0,0,1-1,1A2.82,2.82,0,0,1,194.79,155.19Zm0-.72a2,2,0,0,0,1-.26,1.83,1.83,0,0,0,.68-.75,2.89,2.89,0,0,0,0-2.35,1.83,1.83,0,0,0-.68-.75,2.19,2.19,0,0,0-2.07,0,1.92,1.92,0,0,0-.69.75,3,3,0,0,0,0,2.35,1.92,1.92,0,0,0,.69.75A2,2,0,0,0,194.79,154.47Z" fill="#004253"/><path d="M203.34,155.09v-5.61h1.91a2.35,2.35,0,0,1,1.09.22,1.52,1.52,0,0,1,.63.6,1.8,1.8,0,0,1,.2.84,1.86,1.86,0,0,1-.2.84,1.49,1.49,0,0,1-.64.6,2.29,2.29,0,0,1-1.11.23h-1.07v2.28Zm.81-2.89h1a1.12,1.12,0,0,0,.87-.29,1.15,1.15,0,0,0,0-1.49,1.23,1.23,0,0,0-.89-.27h-1Zm2.15,2.89-1.21-2.49H206l1.26,2.49Z" fill="#004253"/><path d="M214.2,155.09V153l-1.85-3.53h.91l1.49,3h-.28l1.48-3h.9L215,153v2.08Z" fill="#004253"/><path d="M123.36,121.16a15.38,15.38,0,0,0-7.65-12.83l-27.45-16a15.39,15.39,0,0,0-15.56,0L45.86,108.15a15.4,15.4,0,0,0-7.6,13.28v15.95c.1,5.79.26,11.65.4,16.21a15.38,15.38,0,0,0,7.64,12.83l27.45,16a15.41,15.41,0,0,0,15.57,0l26.84-15.78a15.4,15.4,0,0,0,7.6-13.28V137.38C123.65,131.58,123.5,125.73,123.36,121.16Z" fill="teal"/><polygon points="62.8 154.19 96.72 154.19 96.78 161.39 62.8 161.39 62.8 154.19" fill="#00ad99"/><polygon points="62.84 143.15 96.78 143.76 96.78 150.82 62.74 150.34 62.84 143.15" fill="#00ad99"/><polygon points="64.2 129.5 97.94 133.87 97.02 141 63.25 136.88 64.2 129.5" fill="#00ad99"/><polygon points="71.1 109.84 101.53 125.04 98.32 131.47 66.83 118.4 71.1 109.84" fill="#00ad99"/></svg>